<svg xmlns="http://www.w3.org/2000/svg" height="20" width="20"><path d="m16 18.125-2.229-2.229q-.459.292-1.094.552-.635.26-1.177.385v-1.541q.25-.104.594-.24.344-.135.573-.26L10 12.125v3.896l-4-4H3v-4h2.875L1.875 4l1.063-1.062 14.124 14.124Zm-.125-4.354-1.083-1.083q.333-.605.52-1.282.188-.677.188-1.385 0-1.854-1.115-3.302-1.114-1.448-2.885-1.99V3.188q2.438.479 3.969 2.416Q17 7.542 17 10.021q0 1-.292 1.948-.291.948-.833 1.802Zm-2.583-2.583L11.5 9.396V6.854q.938.417 1.469 1.281.531.865.531 1.886 0 .291-.042.583-.041.292-.166.584ZM10 7.896 8.062 5.958 10 4.021Zm-1.5 4.5v-1.771L7 9.125l-.375.396H4.5v1h2.125Zm-.75-2.521Z"/></svg>